<svg width="159" height="156" viewBox="0 0 159 156" fill="none" xmlns="http://www.w3.org/2000/svg">
<path d="M156.5 78C156.5 119.653 122.071 153.5 79.5 153.5C36.929 153.5 2.5 119.653 2.5 78C2.5 36.3472 36.929 2.5 79.5 2.5C122.071 2.5 156.5 36.3472 156.5 78Z" fill="#357880" stroke="#FFFEFA" stroke-width="5"/>
<path d="M104.294 29C60.1732 80.3305 105.048 94.8672 133 95.7192" stroke="#FFFEFA"/>
<path d="M114.354 127.148C87.1725 63.9404 56.9702 102.046 45.2668 129" stroke="#FFFEFA"/>
<path d="M33 99.2861C98.1731 92.7168 74.1323 49.9558 53.9653 29.3965" stroke="#FFFEFA"/>
<ellipse rx="11.7121" ry="11.0688" transform="matrix(0.97858 -0.205868 0.183599 0.983001 109.752 65.8669)" fill="#FFFEFA"/>
<ellipse rx="11.7121" ry="11.0688" transform="matrix(0.97858 -0.205868 0.183599 0.983001 80.134 115.637)" fill="#FFFEFA"/>
<ellipse rx="11.7121" ry="11.0688" transform="matrix(0.97858 -0.205868 0.183599 0.983001 48.0474 65.8669)" fill="#FFFEFA"/>
</svg>
